<svg width="16" height="17" viewBox="0 0 16 17" fill="none" xmlns="http://www.w3.org/2000/svg">
<path d="M7.82995 6.39972L7.71962 6.35069H7.51884H7.37504L7.23592 6.66373L7.23508 6.66561L7.82995 6.39972ZM7.82995 6.39972L7.58836 6.5071L7.76624 6.90736L7.82995 6.39972ZM7.57109 7.05069L7.23508 6.90136L7.14759 6.86247L7.06394 7.05069H7.57109ZM7.57109 7.05069H7.23508V7.43581M7.57109 7.05069L7.23508 7.43581M7.23508 7.43581L7.23591 7.43768L7.23508 7.43581ZM7.72482 7.28729L7.58836 7.59432L7.72482 7.28729ZM7.72482 7.28729V7.65497V7.74842V7.75069V7.28729ZM7.82995 6.39972L7.71964 6.35069L7.82995 6.39972Z" fill="black" stroke="#F97316" stroke-width="1.4"/>
<path d="M0.691528 12.2937V4.1875C0.691528 3.99943 0.802285 3.82901 0.974146 3.75263L7.63664 0.791504C7.75974 0.736816 7.90013 0.736816 8.02323 0.791504L14.6857 3.75263C14.8576 3.82901 14.9683 3.99943 14.9683 4.1875V12.2937C14.9683 12.4818 14.8576 12.6522 14.6857 12.7286L8.02323 15.6897C7.90013 15.7443 7.75974 15.7443 7.63664 15.6897L0.974146 12.7286C0.802285 12.6522 0.691528 12.4818 0.691528 12.2937Z" stroke="#F97316" stroke-width="1.4" stroke-linecap="round" stroke-linejoin="round"/>
<path d="M4.26074 2.29199L11.1165 5.33901C11.2884 5.41539 11.3991 5.58582 11.3991 5.77388V8.63724" stroke="#F97316" stroke-width="1.4" stroke-linecap="round" stroke-linejoin="round"/>
</svg>
